# xmcd
#
# Track frame offsets:
#	150
#	27675
#	53958
#	57665
#	80708
#	108290
#
# Disc length: 1792 seconds
#
# Revision: 1
# Processed by: cddbd v1.5.1PL0 Copyright (c) Steve Scherf et al.
# Submitted via: CDex 1.50Beta5
#
DISCID=5406fe06
DTITLE=さだまさし - きみを忘れない〜タイムカプセル〜
DYEAR=2001
DGENRE=
TTITLE0=さだまさし/きみを忘れない〜タイムカプセル〜
TTITLE1=さだまさし/精霊流し〜2001ヴァージョン〜
TTITLE2=さだまさし/きみを忘れない〜エピローグ〜
TTITLE3=グレープ/精霊流し〜グレープ・オリジナル版〜
TTITLE4=さだまさし/きみを忘れない〜タイムカプセル〜-オリジナルカラオケ-
TTITLE5=さだまさし/精霊流し〜2001ヴァージョン〜-オリジナルカラオケ-
EXTD=
EXTT0=
EXTT1=
EXTT2=
EXTT3=
EXTT4=
EXTT5=
PLAYORDER=
